HIERARCHY
ROOT Hips
{
  OFFSET 0 0 0
  CHANNELS 6 Xposition Yposition Zposition Zrotation Xrotation Yrotation
  JOINT Spine
  {
    OFFSET 0 10 0
    CHANNELS 3 Zrotation Xrotation Yrotation
    JOINT Neck
    {
      OFFSET 0 30 0
      CHANNELS 3 Zrotation Xrotation Yrotation
      JOINT Head
      {
        OFFSET 0 8 0
        CHANNELS 3 Zrotation Xrotation Yrotation
        End Site
        {
          OFFSET 0 10 0
        }
      }
    }
    JOINT LeftArm
    {
      OFFSET 15 30 0
      CHANNELS 3 Zrotation Xrotation Yrotation
      JOINT LeftForeArm
      {
        OFFSET 25 0 0
        CHANNELS 3 Zrotation Xrotation Yrotation
        JOINT LeftHand
        {
          OFFSET 25 0 0
          CHANNELS 3 Zrotation Xrotation Yrotation
          End Site
          {
            OFFSET 10 0 0
          }
        }
      }
    }
    JOINT RightArm
    {
      OFFSET -15 30 0
      CHANNELS 3 Zrotation Xrotation Yrotation
      JOINT RightForeArm
      {
        OFFSET -25 0 0
        CHANNELS 3 Zrotation Xrotation Yrotation
        JOINT RightHand
        {
          OFFSET -25 0 0
          CHANNELS 3 Zrotation Xrotation Yrotation
          End Site
          {
            OFFSET -10 0 0
          }
        }
      }
    }
  }
  JOINT LeftUpLeg
  {
    OFFSET 10 -10 0
    CHANNELS 3 Zrotation Xrotation Yrotation
    JOINT LeftLeg
    {
      OFFSET 0 -35 0
      CHANNELS 3 Zrotation Xrotation Yrotation
      JOINT LeftToe
      {
        OFFSET 0 -40 0
        CHANNELS 3 Zrotation Xrotation Yrotation
        JOINT LeftToeEnd
        {
          OFFSET 0 0 0
          CHANNELS 3 Zrotation Xrotation Yrotation
          End Site
          {
            OFFSET 0 0 15
          }
        }
      }
    }
  }
  JOINT RightUpLeg
  {
    OFFSET -10 -10 0
    CHANNELS 3 Zrotation Xrotation Yrotation
    JOINT RightLeg
    {
      OFFSET 0 -35 0
      CHANNELS 3 Zrotation Xrotation Yrotation
      JOINT RightToe
      {
        OFFSET 0 -40 0
        CHANNELS 3 Zrotation Xrotation Yrotation
        JOINT RightToeEnd
        {
          OFFSET 0 0 0
          CHANNELS 3 Zrotation Xrotation Yrotation
          End Site
          {
            OFFSET 0 0 15
          }
        }
      }
    }
  }
}
MOTION
Frames:	23
Frame Time:	0.0333333
0.88798 85.957 -15.1869 0.312809 0.393467 1.7697 0.14881 6.86635 -2.25981 1.70283 -16.3291 -0.567688 3.56934 22.4127 0.586985 -91.0604 -12.0255 5.56382 10.5319 -3.10915 -29.1809 -0.617622 12.4303 0.6358 90.964 -11.267 -0.0804433 -7.82033 -1.7149 25.3354 -0.874541 7.55359 -2.19519 8.2283 -11.4624 -2.91785 -1.14351 32.4825 -0.511171 -5.48506 -21.7844 -0.485903 4.21568e-016 7.76503e-018 9.93923e-017 -3.76986 -12.6471 0.703245 0.205813 35.1992 -0.493371 3.89285 -22.9062 -8.99605 2.10471e-038 3.79152e-022 -3.18055e-015 
0.893598 85.9575 -15.1272 0.267962 0.446376 1.68156 0.131726 6.8175 -2.34635 1.19938 -16.0645 -0.90015 4.35877 21.9785 -0.0230979 -91.1141 -12.0179 5.53069 10.56 -3.11754 -29.2252 -0.61507 12.2548 0.635303 90.9142 -11.4692 -0.165745 -7.77584 -1.69359 25.2228 -0.882781 7.65772 -2.18387 8.276 -11.4411 -2.88833 -1.14496 32.476 -0.373607 -5.58923 -21.8313 -0.506154 6.75691e-016 6.21202e-018 4.96962e-017 -3.71235 -12.6814 0.719456 0.210156 35.1711 -0.490822 3.87909 -22.8999 -8.97951 7.27971e-020 -9.70628e-020 -1.59028e-015 
0.898616 85.9595 -15.0697 0.242488 0.49863 1.60147 0.093198 6.77567 -2.42146 0.815609 -15.8586 -1.1599 4.97609 21.6386 -0.492498 -91.1666 -11.9672 5.47298 10.5897 -3.12235 -29.2698 -0.612485 12.1157 0.634058 90.8731 -11.7265 -0.203243 -7.70764 -1.66341 25.0639 -0.892201 7.83906 -2.17005 8.29498 -11.4163 -2.87606 -1.14866 32.4569 -0.231581 -5.67983 -21.8681 -0.503362 7.4042e-016 0 -0 -3.68577 -12.7026 0.742949 0.2039 35.1387 -0.497797 3.88399 -22.9007 -8.94234 2.15358e-019 7.27971e-020 -3.18055e-015 
0.903235 85.9621 -15.0184 0.288098 0.553874 1.54637 -0.025191 6.76572 -2.45251 0.766452 -15.7739 -1.21301 5.12776 21.428 -0.57965 -91.2204 -11.8502 5.32817 10.5989 -3.12065 -29.283 -0.611687 12.132 0.633217 90.8566 -12.1994 -0.114297 -7.56772 -1.6065 24.7607 -0.905307 8.23904 -2.14916 8.22017 -11.3926 -2.88033 -1.15578 32.4087 -0.0768377 -5.72874 -21.8722 -0.463155 -2.15566e-016 -9.70628e-020 7.76503e-019 -3.76551 -12.6987 0.764138 0.203287 35.1146 -0.510909 3.92911 -22.9344 -8.83573 -1.14655e-018 4.85314e-020 -0 
0.908006 85.9653 -14.9712 0.32631 0.598218 1.49748 -0.127059 6.78712 -2.46661 0.933161 -15.8915 -1.0949 5.0137 21.605 -0.341456 -91.2726 -11.6574 5.18852 10.627 -3.12552 -29.3284 -0.610789 12.1458 0.632146 90.8575 -12.7097 0.0237417 -7.42748 -1.55085 24.4618 -0.918517 8.70014 -2.12747 8.14826 -11.3631 -2.90527 -1.16291 32.3603 0.0774325 -5.77408 -21.8735 -0.400919 -4.03053e-017 3.10601e-018 -0 -3.83668 -12.6711 0.804312 0.201766 35.0706 -0.533714 3.97973 -22.9615 -8.73975 -9.70628e-019 -9.22097e-019 -0 
0.913493 85.9692 -14.9274 0.253733 0.594492 1.43332 -0.0857461 6.87921 -2.48313 1.28352 -16.4031 -0.796435 4.62938 22.5932 0.26353 -91.3223 -11.3182 5.16402 10.7377 -3.15987 -29.511 -0.6077 11.9758 0.630487 90.8832 -13.1824 0.160119 -7.35589 -1.52478 24.3094 -0.928163 9.16625 -2.10896 8.21161 -11.2985 -2.9497 -1.16736 32.3447 0.217877 -5.85595 -21.9037 -0.337087 -5.57529e-016 4.65902e-018 -0 -3.74238 -12.5973 0.908893 0.198581 34.9602 -0.571425 4.00628 -22.9266 -8.75773 4.26925e-019 4.85314e-020 -1.59028e-015 
0.922944 85.9735 -14.8882 0.196806 0.616299 1.37887 -0.0508914 6.94705 -2.49274 1.79808 -17.0388 -0.316115 4.1919 23.9435 1.20255 -91.3687 -10.9927 5.13907 10.8377 -3.1917 -29.6772 -0.604438 11.8115 0.628764 90.8963 -13.4688 0.289544 -7.31499 -1.50977 24.2256 -0.935681 9.47525 -2.09653 8.2394 -11.2708 -3.02932 -1.17112 32.3358 0.357301 -5.94154 -21.9314 -0.246862 4.89124e-016 -6.21202e-018 -9.93923e-017 -3.68379 -12.5375 0.995876 0.192866 34.8524 -0.613319 4.05046 -22.9038 -8.77167 3.12421e-019 2.42657e-020 -1.59028e-015 
0.950365 85.9654 -14.8565 0.31316 0.759128 1.36236 -0.206909 6.86789 -2.50152 2.46265 -17.5718 0.390764 4.02224 25.3207 2.52702 -91.4098 -10.8959 4.99376 10.8275 -3.18667 -29.6602 -0.603098 11.8337 0.627459 90.8452 -13.3051 0.384001 -7.27671 -1.49143 24.1554 -0.941396 9.36584 -2.09706 8.00855 -11.3768 -3.19078 -1.17556 32.3068 0.506681 -5.9964 -21.9223 -0.0910328 -3.04874e-016 0 -0 -3.91456 -12.5777 0.956422 0.181856 34.8702 -0.636537 4.18373 -23.0149 -8.65452 -3.79152e-022 0 -1.59028e-015 
0.980956 85.956 -14.8273 0.406159 0.919943 1.35306 -0.322212 6.76498 -2.48273 3.22059 -18.0615 1.21006 3.80908 26.7823 4.04918 -91.4434 -10.7923 4.85154 10.7932 -3.17251 -29.6046 -0.602163 11.8873 0.62628 90.7743 -12.9626 0.458298 -7.27727 -1.48919 24.1721 -0.945242 9.08004 -2.10098 7.80835 -11.5123 -3.33988 -1.17968 32.2929 0.655767 -6.06433 -21.9192 0.0681387 -6.72645e-017 0 -9.93923e-017 -4.12503 -12.6629 0.917509 0.173873 34.8922 -0.665107 4.3219 -23.1031 -8.53476 8.29394e-023 -9.47879e-023 -3.18055e-015 
1.00142 85.9558 -14.7952 0.25716 1.01183 1.3429 -0.141772 6.73213 -2.40367 3.99951 -18.5147 2.04917 3.38668 28.373 5.58901 -91.4637 -10.4757 4.81821 10.797 -3.16821 -29.6145 -0.600432 11.869 0.625062 90.7236 -12.7279 0.522227 -7.34918 -1.52454 24.3492 -0.939693 8.89462 -2.10377 7.95935 -11.6005 -3.37108 -1.18224 32.3379 0.795332 -6.20493 -21.9667 0.158311 2.7857e-016 0 1.98785e-016 -3.97804 -12.7753 0.993082 0.168908 34.7997 -0.720704 4.36296 -22.9941 -8.54924 -2.84364e-022 7.58303e-022 3.18055e-015 
1.01967 85.9577 -14.7633 0.0901627 1.08214 1.29149 0.0790698 6.73485 -2.28796 4.80751 -18.8676 2.88232 2.73617 29.795 7.14576 -91.4673 -10.0731 4.82347 10.8127 -3.16635 -29.646 -0.598134 11.8034 0.623931 90.6596 -12.2915 0.563388 -7.47342 -1.57954 24.6348 -0.932554 8.44429 -2.11125 8.14557 -11.6507 -3.36872 -1.18487 32.3818 0.935894 -6.33829 -22.0215 0.247478 6.04701e-017 1.2424e-017 3.97569e-016 -3.79571 -12.8837 1.1122 0.164986 34.6997 -0.785212 4.39313 -22.8629 -8.55502 -8.25034e-019 9.70628e-020 3.18055e-015 
1.03823 85.9588 -14.7295 0.111664 1.13993 1.13171 0.108063 6.78037 -2.15844 5.66218 -19.0349 3.67932 1.79594 30.7076 8.70696 -91.4462 -9.68748 4.83314 10.8303 -3.16675 -29.6846 -0.595269 11.6948 0.622969 90.5402 -11.2249 0.566046 -7.64154 -1.63949 25.002 -0.93616 7.18373 -2.13406 8.09332 -11.6166 -3.36375 -1.18927 32.3587 1.09259 -6.37632 -22.0418 0.385016 -3.96016e-017 -1.2424e-017 -0 -3.85576 -12.9148 1.25774 0.160214 34.6626 -0.843377 4.50269 -22.8552 -8.42669 -2.13273e-022 9.47879e-023 -1.59028e-015 
1.05972 85.9561 -14.7036 0.156428 1.21357 0.935785 0.130115 6.83737 -1.98461 6.43871 -19.097 4.3567 0.729674 31.2789 10.0469 -91.4014 -9.18574 4.87355 10.8602 -3.17131 -29.7478 -0.591327 11.5015 0.622156 90.4373 -10.1725 0.553264 -7.85393 -1.71584 25.4514 -0.930794 5.92964 -2.16839 7.99845 -11.5945 -3.37497 -1.1946 32.3398 1.25302 -6.40279 -22.0714 0.555811 7.36513e-016 -1.2424e-017 -1.98785e-016 -3.95717 -12.9649 1.3822 0.151682 34.6544 -0.902968 4.62887 -22.8697 -8.23711 5.38807e-036 1.94126e-019 -1.59028e-015 
1.09225 85.9408 -14.7039 0.0975442 1.35367 0.778537 0.298921 6.86491 -1.69167 6.99479 -19.118 4.77909 -0.386232 31.5431 10.8221 -91.3332 -8.31412 4.99956 10.9247 -3.18988 -29.8812 -0.584421 11.0781 0.621262 90.428 -9.86691 0.531401 -8.14098 -1.82929 26.0334 -0.883304 5.60362 -2.22086 7.99653 -11.713 -3.43181 -1.19967 32.4009 1.40087 -6.49177 -22.1563 0.75424 -4.39306e-016 0 -0 -3.97667 -13.1357 1.37767 0.139027 34.6583 -0.963583 4.75254 -22.8363 -7.99805 2.15523e-035 3.88251e-019 -3.18055e-015 
1.12193 85.9261 -14.7025 0.0269391 1.50217 0.585261 0.477296 6.89837 -1.43541 7.42237 -19.0825 5.07731 -1.36113 31.6083 11.3666 -91.2367 -7.53815 5.11837 10.9741 -3.20429 -29.987 -0.578736 10.7405 0.621053 90.4375 -9.61662 0.524744 -8.40255 -1.93663 26.5716 -0.839261 5.34465 -2.26196 8.00597 -11.8271 -3.49841 -1.20478 32.4607 1.55287 -6.58465 -22.2495 0.999374 -1.70054e-016 0 -1.98785e-016 -3.96806 -13.3262 1.40885 0.126675 34.6549 -1.02879 4.86903 -22.7889 -7.76195 -3.79152e-022 -7.58303e-022 -3.18055e-015 
1.1307 85.926 -14.6705 -0.000189704 1.59906 0.262262 0.559979 6.97822 -1.3894 7.785 -18.987 5.35901 -1.97583 31.5783 11.9818 -91.0883 -7.42519 5.12844 10.9387 -3.18895 -29.9305 -0.579009 10.9131 0.62245 90.4043 -8.76793 0.587095 -8.52291 -1.99356 26.859 -0.849472 4.31506 -2.25611 7.99878 -11.7875 -3.53756 -1.20935 32.4458 1.70589 -6.631 -22.3165 1.34483 -7.17488e-016 1.2424e-017 -0 -3.92033 -13.4435 1.67618 0.118709 34.6165 -1.10633 4.95335 -22.7405 -7.60066 1.89576e-022 1.51661e-021 4.77083e-015 
1.1389 85.9298 -14.6296 -0.000873098 1.70115 -0.0590287 0.60474 7.05009 -1.4255 8.02782 -18.8448 5.5585 -2.33308 31.4718 12.4631 -90.9207 -7.4155 5.11179 10.9018 -3.17388 -29.8681 -0.579906 11.1253 0.624552 90.3743 -7.93975 0.638326 -8.59062 -2.03256 27.0425 -0.866484 3.36605 -2.23554 7.95708 -11.7302 -3.587 -1.21333 32.3962 1.86079 -6.67103 -22.3667 1.68579 3.09825e-016 1.2424e-017 -0 -3.8971 -13.5668 1.96577 0.112099 34.5778 -1.18423 5.04026 -22.6922 -7.46838 1.05236e-038 3.79152e-022 -1.59028e-015 
1.16334 85.9294 -14.5925 0.0375211 1.86171 -0.247686 0.626451 7.04971 -1.48992 8.0722 -18.6798 5.62596 -2.37567 31.3735 12.6706 -90.7569 -7.05931 5.13879 10.9417 -3.18659 -29.9408 -0.576431 10.9416 0.626496 90.3806 -7.56804 0.578579 -8.66777 -2.07808 27.2277 -0.856144 3.16694 -2.21533 7.82576 -11.7688 -3.70169 -1.21745 32.3236 2.02091 -6.73478 -22.3968 1.91919 -3.63403e-016 -2.48481e-017 -7.95139e-016 -3.98792 -13.7772 2.09317 0.105018 34.5863 -1.24887 5.16597 -22.6523 -7.35441 9.47879e-023 7.58303e-022 4.77083e-015 
1.19674 85.9304 -14.5578 0.080405 2.03071 -0.395548 0.648423 7.04681 -1.53313 8.05904 -18.4574 5.62299 -2.38628 31.1948 12.7222 -90.6121 -6.59385 5.13761 10.9974 -3.20685 -30.0598 -0.571879 10.681 0.629036 90.4047 -7.54768 0.517213 -8.71408 -2.10626 27.3339 -0.834509 3.42619 -2.20555 7.69203 -11.8255 -3.79285 -1.22145 32.2456 2.18149 -6.80435 -22.4128 2.09223 4.96962e-017 0 -0 -4.11048 -13.9815 2.16935 0.0967098 34.5868 -1.31421 5.30753 -22.6155 -7.22309 -5.64178e-019 4.85314e-020 -1.59028e-015 
1.2397 85.9376 -14.5285 0.0962229 2.15848 -0.539389 0.696854 7.10408 -1.45117 8.15451 -18.1141 5.59082 -2.73982 30.8171 12.6649 -90.5114 -6.14 5.02788 11.0487 -3.23778 -30.1494 -0.56937 10.5853 0.634592 90.4509 -8.08257 0.56125 -8.69281 -2.0915 27.2749 -0.804086 4.21509 -2.23197 7.64077 -11.8448 -3.75163 -1.22536 32.1901 2.3361 -6.87358 -22.4092 2.17994 -1.62289e-016 -2.48481e-017 -1.19271e-015 -4.2219 -14.0526 2.22062 0.0858636 34.4877 -1.39199 5.46698 -22.5674 -7.01295 -3.81427e-019 -5.45978e-020 3.18055e-015 
1.28524 85.9454 -14.5053 0.0888397 2.29751 -0.71374 0.776814 7.18268 -1.35338 8.2095 -17.7769 5.5442 -3.0966 30.4085 12.5715 -90.4393 -5.59723 4.90633 11.1273 -3.27488 -30.2983 -0.567507 10.4506 0.646448 90.4768 -8.68224 0.621044 -8.65549 -2.06473 27.1699 -0.77743 5.11452 -2.26318 7.62216 -11.8719 -3.6931 -1.22923 32.137 2.4911 -6.9366 -22.4166 2.30001 9.93923e-017 -4.96962e-017 -7.95139e-016 -4.29525 -14.1296 2.31727 0.0735981 34.3616 -1.47182 5.62426 -22.5005 -6.78964 8.94798e-020 8.493e-020 1.59028e-015 
1.32391 85.949 -14.4901 0.0279292 2.48465 -0.968806 0.937325 7.26529 -1.3293 8.06592 -17.58 5.51118 -3.14131 30.14 12.5411 -90.3977 -4.84891 4.86654 11.3088 -3.33735 -30.6083 -0.562212 10.0948 0.653739 90.424 -8.82306 0.640815 -8.62579 -2.04051 27.0785 -0.765422 5.66426 -2.26555 7.63122 -11.9321 -3.74631 -1.23301 32.0733 2.65361 -6.98455 -22.4775 2.61095 1.58407e-016 0 -3.97569e-016 -4.2394 -14.3285 2.59227 0.0575351 34.2601 -1.54838 5.74628 -22.3967 -6.62803 -9.09964e-019 -4.85314e-020 -0 
1.36363 85.9482 -14.4825 -0.0110654 2.71728 -1.29425 1.07461 7.35036 -1.33461 7.9201 -17.4405 5.48669 -3.18124 29.8818 12.5383 -90.3694 -4.06386 4.83553 11.5124 -3.40495 -30.9529 -0.555682 9.69436 0.657928 90.3484 -8.80805 0.622889 -8.65019 -2.03971 27.0919 -0.748778 6.05921 -2.26823 7.61792 -12.0313 -3.7602 -1.23781 32.0096 2.82056 -7.01938 -22.5475 2.96421 1.2424e-017 0 3.97569e-016 -4.19973 -14.6106 2.88503 0.038384 34.1937 -1.61605 5.87381 -22.293 -6.43815 1.97159e-019 1.21329e-020 -1.59028e-015 
